<svg xmlns="http://www.w3.org/2000/svg" width="68.312" height="77.784" viewBox="0 0 68.312 77.784">
  <g id="Grupo_2" data-name="Grupo 2" transform="translate(-15.844 -11.106)">
    <path id="Trazado_5" data-name="Trazado 5" d="M84.155,35.556h0a9.163,9.163,0,0,0-1.041-4.295,5.871,5.871,0,0,0-6.728-2.845,24.331,24.331,0,0,0-7.769,3.793q-.661-.826-1.4-1.63c5.9-4.412,9.121-8.825,9.327-12.8a7.2,7.2,0,0,0-2.568-5.909A2.976,2.976,0,0,0,71,11.273a3.029,3.029,0,0,0-2.033,2.32,15.493,15.493,0,0,0-.218,2.678l-.883-1.009a3.2,3.2,0,0,0-2.352-1.08h-.038A3.181,3.181,0,0,0,62.3,17.364,3.251,3.251,0,0,0,62.751,19l2.006,3.326a.975.975,0,0,1-.147,1.179l-2.547,2.5c-4-2.845-8.356-4.479-12.062-4.479s-8.061,1.635-12.062,4.479L35.4,23.513a.973.973,0,0,1-.159-1.176l2.019-3.35a3.234,3.234,0,0,0,.444-1.623,3.179,3.179,0,0,0-3.176-3.183h-.04a3.2,3.2,0,0,0-2.353,1.084l-.88,1.006a15.476,15.476,0,0,0-.219-2.684A3.029,3.029,0,0,0,29,11.272a2.974,2.974,0,0,0-2.97.59,7.2,7.2,0,0,0-2.572,5.912c.205,3.977,3.429,8.389,9.326,12.8q-.744.808-1.4,1.63a24.315,24.315,0,0,0-7.763-3.79,5.866,5.866,0,0,0-6.727,2.83,9.185,9.185,0,0,0-1.048,4.305v0h0a11.49,11.49,0,0,0,3.36,8.293A8.673,8.673,0,0,0,24.5,46.3a38.861,38.861,0,0,0-1.036,7.573,11.3,11.3,0,0,0,3.487,8.643,24.817,24.817,0,0,0,8.336,4.973c-.233,1.253-.412,2.469-.547,3.658a4.446,4.446,0,0,0-1.754-.37c-3.277,0-5.844,3.546-5.844,8.072s2.566,8.061,5.844,8.061a4.683,4.683,0,0,0,2.83-1,6.769,6.769,0,0,0,5.6,2.972,5.676,5.676,0,0,0,5.313-3.663,7.7,7.7,0,0,0,6.543,0,5.684,5.684,0,0,0,5.3,3.666,6.771,6.771,0,0,0,5.6-2.971,4.683,4.683,0,0,0,2.829.995c3.223,0,5.845-3.616,5.845-8.061,0-4.526-2.567-8.072-5.845-8.072a4.447,4.447,0,0,0-1.754.37c-.136-1.191-.314-2.407-.547-3.659a24.9,24.9,0,0,0,8.334-4.968,11.247,11.247,0,0,0,3.479-8.65A38.848,38.848,0,0,0,75.486,46.3a8.676,8.676,0,0,0,5.3-2.448,11.521,11.521,0,0,0,3.372-8.3h0Zm-22.586-7.45a31.851,31.851,0,0,1,6.063,6.065q.46.6.89,1.229c.088.128.17.258.256.387.2.292.39.584.575.881.017.028.033.057.051.085-.251-.079-.486-.137-.731-.208-.275-.08-.555-.165-.823-.234-.317-.082-.621-.144-.928-.211-.249-.054-.5-.115-.746-.159-.3-.055-.592-.09-.884-.129-.233-.031-.471-.071-.7-.092-.283-.027-.553-.033-.827-.044-.221-.009-.447-.028-.662-.027-.264,0-.517.024-.773.04-.21.013-.426.016-.63.039-.251.029-.49.08-.733.124-.2.035-.4.059-.589.1-.255.06-.5.146-.744.223-.167.053-.34.093-.5.154a10.356,10.356,0,0,0-1.179.526c-3.309,1.731-5.814,5.3-7.955,11.415-2.14-6.111-4.646-9.683-7.954-11.415a10.324,10.324,0,0,0-1.195-.533c-.192-.071-.4-.118-.592-.179-.223-.068-.44-.147-.669-.2-.249-.058-.511-.09-.768-.131-.19-.031-.374-.075-.569-.1-.272-.03-.559-.033-.841-.045-.189-.008-.371-.03-.564-.03h-.012c-.147,0-.3.017-.453.022-.337.011-.673.02-1.024.055-.191.019-.394.055-.59.081-.323.042-.645.082-.98.143-.21.038-.431.093-.645.139-.337.072-.673.142-1.022.232-.226.058-.464.132-.7.2-.277.079-.546.147-.83.237.02-.033.039-.066.059-.1.172-.276.354-.547.535-.818.1-.146.191-.295.291-.44q.419-.607.867-1.2l.019-.026h0l0-.007A31.8,31.8,0,0,1,38.435,28.1C42.285,25.2,46.5,23.528,50,23.528S57.715,25.2,61.569,28.105Zm-43.694,8.33c.112-.006.225-.007.338,0,.074,0,.148,0,.223,0,.15.009.3.029.453.05.169.024.339.055.508.093.088.02.177.036.265.059.126.033.252.074.377.115.082.026.165.051.247.081.126.045.251.095.376.146.081.033.162.067.243.1q.186.082.37.173c.081.04.161.082.242.124.121.064.242.128.361.2.079.046.158.094.236.141.118.071.236.142.352.218.075.049.149.1.223.152q.334.228.654.474c.069.053.14.1.208.159.093.074.181.151.271.227s.178.148.264.224.164.148.245.223.176.162.262.245.15.147.223.221.169.171.25.257.134.143.2.214c.084.093.166.185.245.278.056.065.112.129.165.193.09.109.175.216.258.324.037.048.076.1.112.143l.027.038q-.305.758-.577,1.544c-.023.065-.042.133-.064.2-.145.426-.287.855-.418,1.29a6.722,6.722,0,0,1-4.421-1.926A9.528,9.528,0,0,1,17.875,36.436ZM32.988,84.914c-2.084,0-3.844-2.775-3.844-6.061s1.76-6.072,3.844-6.072a2.675,2.675,0,0,1,1.53.521c-.048.625-.061,1.26-.086,1.892-.015.373-.044.741-.051,1.115-.019,1.068-.006,2.139.04,3.208,0,.02-.011.036-.011.056s.012.046.014.071c.032.944.1,1.934.219,3.113a6.6,6.6,0,0,0,.154.877c.018.075.037.148.057.223s.035.151.058.225A2.821,2.821,0,0,1,32.988,84.914ZM52.873,83.2a5.9,5.9,0,0,1-5.746,0c0-.056-.005-.115-.008-.172-.008-.18-.023-.364-.047-.578L46.81,80.46h0l-.822-6.315-.114-.88a1,1,0,1,0-1.982.258L44,74.4l.7,5.411a8.737,8.737,0,0,1-.95.1,18.875,18.875,0,0,1-5.785-.684c-.515-.123-1.039-.276-1.562-.423-.018-.569-.023-1.137-.021-1.7,0-.352-.01-.706,0-1.057.024-.995.076-1.983.159-2.961,0-.049,0-.1.009-.149a48.054,48.054,0,0,1,.628-4.779c.087.027.177.05.264.077.209.064.421.124.633.184.306.087.614.173.925.253.22.057.442.11.664.163q.466.111.939.211.342.072.688.14.478.092.965.173c.233.039.465.078.7.114.331.05.666.094,1,.137.234.03.466.061.7.087.353.039.71.071,1.068.1.224.019.446.042.672.058.4.029.8.048,1.2.067.194.009.385.023.58.029q.9.032,1.814.033t1.81-.033c.194-.007.383-.02.576-.029.4-.019.8-.039,1.2-.067.224-.016.444-.038.666-.058.361-.031.721-.063,1.076-.1.231-.026.458-.056.686-.085.341-.043.681-.088,1.018-.139.231-.035.459-.073.688-.112.328-.055.655-.113.979-.176q.34-.066.677-.137.48-.1.952-.214c.22-.052.439-.105.656-.161.313-.081.623-.166.932-.254.212-.06.424-.12.633-.184.089-.027.18-.05.268-.078a48.292,48.292,0,0,1,.629,4.788c.09,1.029.142,2.07.167,3.117.008.341,0,.683,0,1.024,0,.573,0,1.147-.022,1.722-.524.148-1.048.3-1.569.425a18.632,18.632,0,0,1-5.8.68,8.547,8.547,0,0,1-.939-.1L56,74.4s0,0,0,0h0l.114-.88a1,1,0,1,0-1.982-.258l-.114.877h0l-.834,6.318-.266,2.01a6.691,6.691,0,0,0-.04.726ZM67.012,72.781c2.084,0,3.845,2.78,3.845,6.072s-1.761,6.061-3.845,6.061a2.821,2.821,0,0,1-1.924-.833c.023-.075.038-.152.059-.228s.039-.145.056-.219a6.507,6.507,0,0,0,.154-.876c.119-1.2.189-2.2.221-3.139,0,0,0-.008,0-.013s.007-.021.007-.033-.005-.018-.006-.028q.072-1.62.041-3.24c-.006-.361-.035-.716-.049-1.076-.025-.644-.039-1.29-.088-1.927A2.675,2.675,0,0,1,67.012,72.781Zm7.513-18.829a9.251,9.251,0,0,1-2.854,7.119A23.479,23.479,0,0,1,63.253,65.9,40.044,40.044,0,0,1,50,67.982c-1.3,0-2.565-.053-3.8-.153a39.794,39.794,0,0,1-6.411-1.021q-1.568-.389-3.039-.907h0a23.4,23.4,0,0,1-8.417-4.834,9.3,9.3,0,0,1-2.863-7.117A36.6,36.6,0,0,1,26.731,45.6a32.959,32.959,0,0,1,1.4-4.045c.271-.66.576-1.312.893-1.951.036-.072.07-.144.106-.216.173-.066.345-.133.511-.194l.241-.09q.473-.17.917-.316c4.441-1.465,7.72-1.516,10.318-.156,3.1,1.623,5.446,5.323,7.53,11.917H47.526a2.638,2.638,0,0,0-2.679,2.589v.329a4.628,4.628,0,0,0,4.719,4.52h.866a4.628,4.628,0,0,0,4.719-4.52v-.329a2.638,2.638,0,0,0-2.679-2.589H51.352c2.086-6.594,4.431-10.294,7.531-11.917,2.6-1.36,5.876-1.311,10.318.157.533.175,1.1.386,1.673.606.032.064.063.128.094.192.323.651.63,1.312.9,1.977A32.476,32.476,0,0,1,73.257,45.6a36.6,36.6,0,0,1,1.268,8.352ZM79.4,42.415a6.726,6.726,0,0,1-4.421,1.92c-.136-.459-.28-.9-.428-1.339-.019-.058-.037-.12-.057-.177q-.267-.777-.563-1.517l.025-.036c.04-.053.084-.107.125-.16.078-.1.156-.2.24-.3.063-.076.13-.153.2-.229s.13-.15.2-.225q.131-.144.268-.287l.142-.146c.115-.117.232-.233.353-.348l.052-.049a10.674,10.674,0,0,1,5.927-3.077c.032,0,.064-.009.1-.011.089-.006.176,0,.265,0s.205,0,.307,0A9.556,9.556,0,0,1,79.4,42.415Z"/>
    <path id="Trazado_6" data-name="Trazado 6" d="M40.295,45.947c-1.315,0-2.347,1.366-2.347,3.111s1.031,3.11,2.347,3.11,2.347-1.366,2.347-3.11S41.61,45.947,40.295,45.947Z"/>
    <path id="Trazado_7" data-name="Trazado 7" d="M53.939,58.791a7.5,7.5,0,0,1-7.883,0,1,1,0,1,0-.979,1.744,9.471,9.471,0,0,0,9.846,0,1,1,0,1,0-.984-1.741Z"/>
    <path id="Trazado_8" data-name="Trazado 8" d="M59.705,45.947c-1.315,0-2.347,1.366-2.347,3.111s1.031,3.11,2.347,3.11,2.346-1.366,2.346-3.11S61.021,45.947,59.705,45.947Z"/>
  </g>
</svg>
