<svg xmlns="http://www.w3.org/2000/svg" width="74.251" height="75" viewBox="0 0 74.251 75">
  <g id="Grupo_4" data-name="Grupo 4" transform="translate(-12.872 -12.5)">
    <path id="Trazado_13" data-name="Trazado 13" d="M46.418,56.555A8.2,8.2,0,0,0,51.3,54.791a1,1,0,0,0-1.187-1.61,5.625,5.625,0,0,1-7.414,0,1,1,0,0,0-1.182,1.613A8.251,8.251,0,0,0,46.418,56.555Z"/>
    <ellipse id="Elipse_1" data-name="Elipse 1" cx="2.596" cy="3.244" rx="2.596" ry="3.244" transform="translate(32.569 40.284)"/>
    <path id="Trazado_14" data-name="Trazado 14" d="M57.657,46.772c1.455,0,2.6-1.425,2.6-3.244s-1.141-3.244-2.6-3.244-2.6,1.425-2.6,3.244S56.2,46.772,57.657,46.772Z"/>
    <path id="Trazado_15" data-name="Trazado 15" d="M86.7,45.131a15.993,15.993,0,0,1-.174-3.3l.22-3.009A1.945,1.945,0,0,0,85.216,36.8c-3.216-.634-7-.03-11.51,1.812-.325-1.233-.68-2.439-1.07-3.6,3.8-4.787,5.151-11.349,4-19.533a2.8,2.8,0,0,0-2.222-2.338c-5.75-1.067-10.763,0-14.932,3.118a24.651,24.651,0,0,0-26.144,0c-4.17-3.121-9.184-4.187-14.926-3.119a2.8,2.8,0,0,0-2.228,2.345c-1.15,8.177.2,14.739,4,19.526a68.121,68.121,0,0,0-2.3,9.026,6.969,6.969,0,0,1-1.3,2.954l-.689.883h0l-2.807,3.6A1,1,0,0,0,13,52.578a26.711,26.711,0,0,0,14.313,12.4l0,.02a30.546,30.546,0,0,0-.592,4.42c-3.386.27-6.891,1.677-6.891,8.193a9.462,9.462,0,0,0,3.361,7.359,7.084,7.084,0,0,0,8.722.239c.192.23.393.458.606.691a5.122,5.122,0,0,0,2.755,1.484,5.4,5.4,0,0,0,1.173.117l3.6-.169A3.782,3.782,0,0,0,42.8,85.952a10.49,10.49,0,0,0,7.221,0,3.761,3.761,0,0,0,2.742,1.378l3.663.17a5.428,5.428,0,0,0,1.1-.114,5.156,5.156,0,0,0,2.789-1.5c.2-.222.4-.445.591-.674a7.084,7.084,0,0,0,8.723-.239,9.459,9.459,0,0,0,3.36-7.359,14.6,14.6,0,0,0-.079-1.51c6.791-3.348,11.531-9.6,13.373-17.707,0,0,0,0,0,0A36.073,36.073,0,0,0,86.7,45.131ZM84.751,38.7l-.219,3a17.993,17.993,0,0,0,.19,3.732,34.342,34.342,0,0,1-.2,11.636c-.1-.014-.211-.025-.308-.04q-.219-.034-.428-.071c-.269-.048-.524-.1-.769-.157-.113-.026-.231-.05-.34-.078-.332-.085-.648-.176-.941-.277l-.031-.011c-.293-.1-.565-.214-.827-.332-.087-.039-.168-.081-.252-.122-.178-.086-.351-.175-.517-.268-.086-.048-.171-.1-.254-.147q-.244-.146-.477-.3c-.069-.047-.14-.092-.209-.14-.21-.148-.416-.3-.621-.459l-.008-.006c.086-.128.169-.266.254-.4.074-.114.148-.229.221-.345.267-.426.533-.863.8-1.329a1,1,0,0,0-.08-1.108l-2.807-3.6h0l-.685-.876a6.983,6.983,0,0,1-1.311-2.964c-.106-.565-.215-1.1-.324-1.63-.02-.1-.04-.2-.061-.291q-.163-.771-.334-1.5l-.012-.054C78.466,38.776,81.94,38.185,84.751,38.7ZM66.167,22.384c-.014-.018-.027-.037-.041-.055.248-.118.5-.227.742-.319.063-.024.125-.043.187-.065q.322-.113.641-.2c.074-.019.148-.039.222-.057a7.285,7.285,0,0,1,.795-.144.7.7,0,0,1,.6.235.821.821,0,0,1,.077.105.689.689,0,0,1,.1.448.581.581,0,0,1,0,.058c0,.013-.007.025-.01.038-.059.261-.127.5-.2.737-.021.068-.044.134-.067.2a6.355,6.355,0,0,1-.24.6c-.011.023-.02.049-.031.071a4.672,4.672,0,0,1-.324.561c-.03.045-.062.087-.093.13a3.662,3.662,0,0,1-.33.395c-.017.018-.033.037-.05.054-.032-.051-.066-.1-.1-.148-.235-.369-.476-.727-.72-1.08-.065-.094-.127-.192-.193-.285Q66.656,23,66.167,22.384ZM25.7,23.665c-.067.094-.13.194-.2.289-.246.355-.488.716-.724,1.086-.03.047-.062.091-.092.139-.018-.017-.034-.038-.051-.056a3.681,3.681,0,0,1-.329-.394c-.031-.043-.063-.086-.093-.131a4.655,4.655,0,0,1-.324-.561c-.011-.022-.02-.048-.03-.07a6.3,6.3,0,0,1-.242-.6c-.022-.063-.043-.126-.064-.191-.078-.245-.15-.5-.211-.776a.7.7,0,0,1,.169-.616.816.816,0,0,1,.073-.07c.015-.013.037-.026.056-.04a.669.669,0,0,1,.061-.041.786.786,0,0,1,.074-.032.62.62,0,0,1,.086-.032.7.7,0,0,1,.085-.012.611.611,0,0,1,.152-.008,7.372,7.372,0,0,1,.8.145c.076.018.153.038.23.059q.316.083.634.195c.065.023.129.042.194.067.247.093.494.2.742.319-.016.02-.03.041-.045.061Q26.165,23.007,25.7,23.665ZM19.851,44.4a65.32,65.32,0,0,1,2.4-9.272q.38-1.114.8-2.174a41.215,41.215,0,0,1,2.8-5.819h0c.275-.468.56-.921.85-1.364A29.047,29.047,0,0,1,29,22.676q.55-.647,1.131-1.247l.04-.039a23.736,23.736,0,0,1,3.685-3.107A21.923,21.923,0,0,1,46.411,14.5a21.924,21.924,0,0,1,12.551,3.783c.524.355,1.033.744,1.534,1.15a24.38,24.38,0,0,1,2.193,2q.579.6,1.128,1.244h0l.005.006a30.133,30.133,0,0,1,3.16,4.449c.405.689.791,1.419,1.167,2.169a46.393,46.393,0,0,1,2.427,5.829c.56,1.617,1.06,3.324,1.487,5.08.322,1.29.618,2.66.906,4.186a9,9,0,0,0,1.7,3.82l.031.04c-.132.088-.261.183-.4.267-.2.121-.393.239-.594.351-.313.174-.635.333-.961.484-.2.093-.4.189-.605.273-.362.148-.734.273-1.109.392-.182.058-.358.125-.543.177a15.705,15.705,0,0,1-1.736.382q-.527.084-1.065.135c-.081.008-.165.009-.246.016-.278.023-.557.044-.839.054-.089,0-.179,0-.269,0-.276.005-.552.01-.83,0-.1,0-.2-.011-.3-.015-.27-.011-.54-.022-.812-.044-.1-.008-.21-.023-.315-.034-.268-.026-.536-.052-.805-.088-.111-.015-.222-.037-.333-.053-.264-.04-.528-.08-.792-.13-.116-.022-.232-.05-.348-.074-.26-.054-.519-.107-.779-.17-.124-.03-.248-.067-.372-.1-.251-.065-.5-.13-.754-.2-.134-.04-.267-.086-.4-.128-.241-.076-.482-.15-.722-.234-.142-.05-.284-.106-.426-.159-.23-.085-.46-.168-.689-.261-.151-.061-.3-.128-.451-.192-.219-.093-.437-.184-.655-.284-.159-.073-.316-.152-.473-.228-.206-.1-.413-.2-.618-.3-.167-.086-.331-.178-.5-.268-.193-.1-.388-.208-.579-.318-.173-.1-.344-.206-.516-.31s-.362-.216-.54-.329-.354-.234-.53-.352-.339-.224-.506-.341-.358-.26-.536-.391c-.133-.1-.266-.195-.4-.3-.006-.013-.016-.021-.022-.034a3.273,3.273,0,0,0-.356-.544c-.024-.03-.048-.058-.073-.086a2.572,2.572,0,0,0-.443-.405c-.025-.018-.051-.033-.077-.05a2.212,2.212,0,0,0-.528-.258c-.019-.006-.04-.009-.059-.015A2.2,2.2,0,0,0,49.181,44h-5.54a2.2,2.2,0,0,0-.621.093c-.019.005-.038.008-.057.014a2.217,2.217,0,0,0-.535.261c-.023.015-.046.028-.068.044a2.571,2.571,0,0,0-.455.416l-.059.069a3.248,3.248,0,0,0-.366.561c0,.008-.01.014-.014.022-.213.163-.434.321-.654.479-.171.122-.336.248-.511.368-.268.183-.548.357-.826.532-.169.106-.332.218-.5.321-.33.2-.672.384-1.013.57-.129.07-.253.146-.383.214q-.707.37-1.441.7c-.187.084-.379.156-.568.236-.308.13-.615.264-.928.382-.23.087-.465.161-.7.242-.278.1-.555.2-.837.284-.246.076-.495.137-.743.205-.274.075-.547.153-.822.218-.255.06-.511.106-.767.157-.272.054-.543.111-.817.155s-.521.07-.781.1-.542.068-.814.091-.523.03-.785.041-.541.023-.811.023-.521-.013-.781-.024-.539-.025-.807-.05-.514-.058-.77-.094-.535-.077-.8-.128-.5-.106-.752-.166c-.265-.064-.53-.133-.792-.212-.245-.073-.488-.155-.73-.241q-.392-.14-.778-.3-.354-.149-.7-.318c-.256-.125-.51-.259-.761-.4-.224-.126-.447-.256-.667-.4-.1-.065-.2-.14-.3-.208l.04-.052A8.976,8.976,0,0,0,19.851,44.4Zm-4.776,7.773,1.8-2.31c.065.044.133.078.2.121.28.186.566.355.852.521.166.1.331.2.5.289.338.18.681.34,1.026.494.122.055.242.118.365.17q.71.3,1.436.525c.079.025.16.041.239.065.405.121.812.23,1.223.32.165.036.331.061.5.093.329.063.658.122.99.166.189.025.379.042.569.062.311.032.623.059.936.076.2.01.4.016.6.021.156,0,.312.016.469.016.194,0,.388-.01.582-.015.1,0,.2,0,.307-.008.473-.02.945-.054,1.417-.105.079-.008.157-.021.236-.03q.609-.072,1.216-.177c.113-.019.226-.038.339-.059.469-.088.937-.185,1.4-.3l.133-.035c.424-.107.846-.227,1.264-.355.116-.035.231-.071.346-.108.455-.146.908-.3,1.355-.469h0c.45-.17.893-.356,1.333-.548.11-.048.219-.1.328-.146q.579-.262,1.144-.546c.051-.026.1-.05.155-.076.419-.215.829-.44,1.233-.673.1-.057.2-.116.3-.175q.5-.3.99-.611c.053-.034.11-.066.163-.1.008.066.028.126.038.191.017.108.039.211.062.314a4.262,4.262,0,0,0,.147.5c.034.095.067.189.108.279a3.525,3.525,0,0,0,.253.458c.044.069.082.143.131.208a2.982,2.982,0,0,0,.5.535,6.466,6.466,0,0,0,8.32,0h0a3.012,3.012,0,0,0,.482-.493c.048-.061.082-.132.125-.2a3.456,3.456,0,0,0,.238-.386c.042-.084.07-.174.1-.262a4.042,4.042,0,0,0,.146-.387c.028-.094.043-.192.064-.288.03-.134.061-.267.079-.4,0-.02.009-.039.012-.059.067.044.136.084.2.128.14.091.281.178.422.266.225.141.451.279.679.413q.219.129.439.253.343.194.69.377c.146.077.292.154.439.229.238.121.477.236.717.349.142.067.283.135.426.2.258.117.517.226.776.334.126.052.25.107.376.157.316.126.633.244.951.357.071.025.141.053.211.078q.591.205,1.186.381c.062.018.124.033.186.051.329.094.658.184.988.265.125.031.25.056.376.085.267.061.533.12.8.172.145.028.29.052.434.077.248.043.5.084.743.12.152.022.3.04.455.059q.361.044.721.077.23.021.459.037c.24.017.478.028.716.037.15.005.3.011.449.014.244,0,.486,0,.728,0,.141,0,.283,0,.424-.009.262-.011.523-.03.782-.051.117-.009.235-.015.351-.026.375-.037.747-.083,1.116-.142.581-.092,1.147-.217,1.7-.362.075-.02.152-.037.227-.057.528-.145,1.042-.317,1.547-.509.091-.035.182-.07.272-.106.5-.2.984-.421,1.458-.667.078-.04.153-.084.23-.125a16.464,16.464,0,0,0,1.422-.855l.02-.012,1.8,2.309c-.325.548-.654,1.054-.988,1.545-.126.185-.249.374-.378.553a23.827,23.827,0,0,1-7.738,7.065,27.076,27.076,0,0,1-4.606,2.075c-4.527,1.547-10.128,2.268-17.626,2.268-1.875,0-3.631-.045-5.281-.137-.94-.052-1.836-.124-2.71-.207a41.922,41.922,0,0,1-9.635-1.925A24.4,24.4,0,0,1,15.075,52.169Zm9.368,31.241a7.448,7.448,0,0,1-2.615-5.8c0-4.978,2.184-5.97,4.835-6.192,0,0,0,.007,0,.01,0,.107,0,.21.011.3a21.684,21.684,0,0,0,3.979,11.884l.024.031A5.178,5.178,0,0,1,24.443,83.411Zm19.19.726s0-.01,0-.015a3.591,3.591,0,0,0,.032-.377c0-.058.013-.116.014-.175a3.547,3.547,0,0,0-.039-.551c-.3-2.227-1.08-8.14.775-10.257a2.845,2.845,0,0,1,3.992,0,3.543,3.543,0,0,1,.58.961c1.091,2.588.446,7.348.182,9.295a3.847,3.847,0,0,0-.031.558c0,.041.009.081.011.122a3.775,3.775,0,0,0,.039.429s0,0,0,.007A8.717,8.717,0,0,1,43.633,84.136Zm13.509,1.288a3.634,3.634,0,0,1-.665.077l-3.621-.17a1.787,1.787,0,0,1-1.542-1.048,1.738,1.738,0,0,1-.156-.618,1.782,1.782,0,0,1-.005-.381,40.427,40.427,0,0,0,.447-5.865c-.036-2.416-.466-4.575-1.686-5.971a4.835,4.835,0,0,0-7,0c-2.161,2.467-1.846,7.368-1.25,11.857a1.683,1.683,0,0,1-.16,1,1.789,1.789,0,0,1-1.547,1.033L36.4,85.5a3.646,3.646,0,0,1-.733-.079,3.137,3.137,0,0,1-1.687-.892c-.375-.408-.715-.815-1-1.194a.89.89,0,0,0-.072-.1,1.046,1.046,0,0,0-.075-.1c-.166-.193-.323-.4-.473-.6l-.088-.114a19.2,19.2,0,0,1-3.257-7.694,19.625,19.625,0,0,1-.335-3.1c-.011-.159-.01-.33-.01-.489,0-.226,0-.45.012-.753a27.451,27.451,0,0,1,.546-4.737c.13.04.27.073.4.111.265.077.536.151.807.223q.517.138,1.051.264.421.1.852.192c.366.078.74.152,1.118.222.3.055.594.11.9.16.391.065.793.124,1.2.181.31.044.619.089.937.128.425.053.865.1,1.305.143.318.032.632.067.958.1.474.041.966.074,1.457.106.315.021.624.046.947.063.553.03,1.13.05,1.706.07.284.01.558.024.848.032.876.022,1.776.034,2.707.034s1.831-.012,2.707-.034c.289-.007.562-.022.846-.032.577-.02,1.154-.04,1.708-.07.321-.017.628-.042.941-.063.494-.033.988-.066,1.464-.107.322-.028.632-.062.946-.094.445-.045.89-.091,1.319-.145.313-.039.617-.083.922-.126.411-.058.819-.118,1.216-.184.3-.05.59-.1.88-.157.385-.072.765-.146,1.137-.226q.423-.09.836-.188.543-.128,1.069-.269c.266-.071.531-.143.791-.219.133-.039.272-.072.4-.112.011.057.021.114.032.171.146.758.268,1.506.353,2.241,0,.031.005.06.009.091.087.779.142,1.548.158,2.307.011.226.011.452.011.678,0,.16,0,.332-.011.522a19.712,19.712,0,0,1-.336,3.083A19.133,19.133,0,0,1,60.578,82.4l-.1.126c-.153.2-.315.417-.484.615-.029.034-.087.107-.111.144-.327.433-.667.84-1.024,1.229A3.168,3.168,0,0,1,57.142,85.424ZM68.38,83.41a5.179,5.179,0,0,1-6.235.232l.045-.06a21.14,21.14,0,0,0,3.589-8.467,21.448,21.448,0,0,0,.368-3.357c.007-.109.01-.223.012-.336.254.023.512.052.77.095.067.011.132.028.2.04a6.785,6.785,0,0,1,.67.165c.081.024.163.049.243.077a4.471,4.471,0,0,1,.8.355,4.583,4.583,0,0,1,2.018,3.536,11.268,11.268,0,0,1,.142,1.918A7.447,7.447,0,0,1,68.38,83.41Z"/>
  </g>
</svg>
