<svg xmlns="http://www.w3.org/2000/svg" width="66.06" height="77.784" viewBox="0 0 66.06 77.784">
  <g id="Grupo_5" data-name="Grupo 5" transform="translate(-16.97 -11.107)">
    <path id="Trazado_16" data-name="Trazado 16" d="M75.664,30.976a10.548,10.548,0,0,0,4.318-8.3,11.448,11.448,0,0,0-4.625-9.588,1.479,1.479,0,0,0-.155-.1,9.762,9.762,0,0,0-9.241-1.237,9.155,9.155,0,0,0-5.414,5.3A17.12,17.12,0,0,0,50,13.834a17.118,17.118,0,0,0-10.546,3.214,9.163,9.163,0,0,0-5.415-5.3A9.751,9.751,0,0,0,24.785,13a.975.975,0,0,0-.14.086,11.447,11.447,0,0,0-4.626,9.588,10.552,10.552,0,0,0,4.318,8.3,20.957,20.957,0,0,0-7.271,17.764c.737,7.177,5.656,12.76,13.865,15.811a31.82,31.82,0,0,0-.579,5.035c-3.422-.642-5.037.618-5.793,1.868-1.976,3.266.326,8.99,3.592,12.421,2.953,3.1,6.334,4.151,9.413,2.969a4.637,4.637,0,0,0,7.983-.519,10.558,10.558,0,0,0,8.91,0,4.7,4.7,0,0,0,4.149,2.564,4.635,4.635,0,0,0,3.833-2.048c3.083,1.184,6.462.13,9.411-2.97,3.265-3.431,5.566-9.154,3.592-12.421-.756-1.25-2.37-2.508-5.8-1.867a32.369,32.369,0,0,0-.581-5.025c8.207-3.05,13.127-8.631,13.869-15.8A20.977,20.977,0,0,0,75.664,30.976ZM41.37,86.879a2.672,2.672,0,0,1-2.448-1.713h0a32.112,32.112,0,0,1-1.833-10.431,1.022,1.022,0,0,0-1.047-.951,1,1,0,0,0-.951,1.047,35.79,35.79,0,0,0,1.65,10.177c-3.05,1.095-5.747-1.047-7.141-2.513-3-3.154-4.589-7.924-3.329-10.007.757-1.252,2.525-1.21,4.093-.859a35.342,35.342,0,0,0,.346,4.353,1,1,0,0,0,.988.854.933.933,0,0,0,.146-.011,1,1,0,0,0,.844-1.135,33.445,33.445,0,0,1-.354-4.847v0a29.9,29.9,0,0,1,.5-5.622c.035.011.075.019.11.03.741.225,1.511.431,2.3.622.143.035.286.069.43.1q1.187.274,2.445.5c.146.026.295.05.443.075.865.145,1.75.276,2.662.385.11.013.223.024.333.036.969.111,1.957.206,2.976.276l-.476,17.088a1.894,1.894,0,0,1-.04.306A2.633,2.633,0,0,1,41.37,86.879ZM73.731,72.487C74.99,74.57,73.4,79.34,70.4,82.494c-1.4,1.466-4.092,3.608-7.142,2.513a35.852,35.852,0,0,0,1.651-10.176,1,1,0,0,0-2-.1,32.146,32.146,0,0,1-1.834,10.435h0a2.656,2.656,0,0,1-5.111-.535,1.94,1.94,0,0,1-.024-.334l-.476-17.06c1.013-.07,1.995-.165,2.958-.275.118-.013.237-.025.354-.039.907-.109,1.788-.239,2.649-.384.149-.025.3-.05.447-.076q1.262-.223,2.453-.5c.136-.031.27-.064.4-.1.8-.193,1.581-.4,2.33-.63.031-.009.065-.017.1-.026a30.922,30.922,0,0,1,.506,5.629,33.207,33.207,0,0,1-.353,4.848,1,1,0,0,0,.845,1.134.921.921,0,0,0,.146.011,1,1,0,0,0,.988-.855,35.132,35.132,0,0,0,.346-4.352C71.2,71.277,72.972,71.235,73.731,72.487ZM80.942,48.55C80.479,53.027,77.965,59,68.771,62.544c-.03-.228-.081-.434-.116-.658-.062-.4-.13-.792-.208-1.176-.083-.412-.176-.813-.276-1.207-.094-.368-.191-.731-.3-1.084-.115-.377-.239-.741-.369-1.1-.122-.338-.246-.672-.381-1-.143-.343-.3-.672-.451-1-.147-.308-.3-.614-.454-.907-.168-.31-.345-.607-.525-.9-.17-.278-.339-.556-.518-.82-.19-.279-.388-.544-.588-.808s-.376-.5-.573-.734-.426-.483-.643-.718-.406-.443-.618-.651-.457-.426-.689-.632c-.216-.193-.43-.389-.652-.569-.239-.194-.484-.371-.729-.551-.224-.165-.446-.335-.675-.488-.251-.168-.506-.319-.76-.473-.229-.138-.456-.283-.687-.41-.261-.143-.523-.268-.785-.4-.229-.113-.457-.232-.686-.335-.269-.119-.537-.22-.806-.325-.225-.088-.449-.184-.673-.262-.277-.1-.551-.173-.826-.255-.214-.064-.429-.137-.641-.192-.29-.075-.573-.13-.859-.189-.192-.04-.387-.09-.577-.123-.314-.055-.618-.088-.924-.124-.154-.018-.313-.047-.464-.06-.452-.04-.893-.061-1.319-.061s-.866.021-1.318.061c-.147.013-.3.041-.451.059-.31.036-.618.07-.936.126-.183.032-.37.081-.555.119-.292.061-.583.117-.88.194-.2.052-.406.122-.61.183-.286.085-.57.165-.858.265-.211.074-.422.164-.633.247-.282.11-.563.215-.845.341-.217.1-.432.21-.649.316-.275.135-.55.266-.823.416-.219.121-.435.258-.652.389-.266.16-.532.318-.795.494-.218.146-.429.308-.643.465-.255.187-.511.372-.761.575-.212.172-.416.359-.623.543-.242.215-.484.428-.719.659-.2.2-.4.413-.593.624-.226.243-.451.486-.668.745-.19.227-.371.468-.553.708-.207.272-.412.545-.609.834-.174.256-.338.525-.5.794-.185.3-.368.607-.541.926-.155.285-.3.583-.443.882-.161.333-.317.671-.464,1.021-.132.316-.254.644-.374.974-.133.365-.26.736-.377,1.119-.106.347-.2.7-.3,1.067-.1.4-.2.8-.282,1.222-.077.379-.145.767-.208,1.161-.036.226-.088.435-.119.666-9.192-3.543-11.7-9.52-12.164-14-.732-7.125,3.385-14.239,7.619-16.745a1,1,0,0,0-.062-1.756c-.229-.113-.457-.251-.659-.372a8.569,8.569,0,0,1-3.937-7.049,9.445,9.445,0,0,1,3.774-7.882c.059-.037.12-.079.188-.129a7.762,7.762,0,0,1,7.354-.982,7.175,7.175,0,0,1,4.577,5.22c0,.011,0,.021.008.032a1.637,1.637,0,0,0,.046.182,1,1,0,0,0,1.589.451A15.25,15.25,0,0,1,50,15.834,15.25,15.25,0,0,1,60.449,19.5a1,1,0,0,0,1.589-.451,1.345,1.345,0,0,0,.047-.185c0-.01,0-.02.007-.03a7.172,7.172,0,0,1,4.576-5.219,7.763,7.763,0,0,1,7.35.979c.063.048.129.094.193.133a9.444,9.444,0,0,1,3.772,7.882,8.563,8.563,0,0,1-3.927,7.043c-.224.134-.444.268-.668.378a1,1,0,0,0-.063,1.756C77.562,34.3,81.679,41.424,80.942,48.55Z"/>
    <path id="Trazado_17" data-name="Trazado 17" d="M55.155,29.974a9.349,9.349,0,0,1-10.312,0,1,1,0,0,0-1.021,1.721,11.338,11.338,0,0,0,12.359,0,1,1,0,0,0-1.025-1.717Z"/>
    <path id="Trazado_18" data-name="Trazado 18" d="M31.966,20.743a2.362,2.362,0,0,0-3.553,1.919A4.009,4.009,0,0,0,28.9,25h0a3.51,3.51,0,0,0,2.921,2,2.244,2.244,0,0,0,1.078-.271,2.486,2.486,0,0,0,1.237-1.96,4.2,4.2,0,0,0-2.174-4.025Z"/>
    <path id="Trazado_19" data-name="Trazado 19" d="M70.353,20.7a2.488,2.488,0,0,0-2.316.04,4.2,4.2,0,0,0-2.175,4.025,2.486,2.486,0,0,0,1.237,1.96A2.248,2.248,0,0,0,68.178,27a3.507,3.507,0,0,0,2.92-2,4.013,4.013,0,0,0,.491-2.335A2.487,2.487,0,0,0,70.353,20.7Z"/>
  </g>
</svg>
