<svg xmlns="http://www.w3.org/2000/svg" width="74.835" height="82" viewBox="0 0 74.835 82">
  <g id="Grupo_6" data-name="Grupo 6" transform="translate(-12.583 -9)">
    <path id="Trazado_20" data-name="Trazado 20" d="M85.213,60.792a9.085,9.085,0,0,0-7.941,2.222,11.834,11.834,0,0,0-.417-7.4,15.775,15.775,0,0,0,2.284-.767c6.493-2.792,9.876-9.508,7.538-14.971h0a10.086,10.086,0,0,0-7.348-5.759c3.577-4.938,3.516-11.339-.372-15.213a10.389,10.389,0,0,0-7.438-2.977h0a13.566,13.566,0,0,0-8.809,3.434,12.976,12.976,0,0,0-25.418,0,13.568,13.568,0,0,0-8.809-3.433h0A10.385,10.385,0,0,0,21.045,18.9c-3.89,3.877-3.951,10.277-.374,15.216a10.081,10.081,0,0,0-7.348,5.76c-2.338,5.462,1.045,12.178,7.546,14.974a15.749,15.749,0,0,0,2.272.762c-1.635,4.327-.915,8.665,1.959,11.3a8.885,8.885,0,0,0,6.5,2.232l.118,5.341a4.877,4.877,0,0,0-2.016-.356c-3.25.149-5.744,3.576-5.56,7.635.168,3.984,2.836,7.136,6,7.136.065,0,.131,0,.2,0a5.094,5.094,0,0,0,3.106-1.283A8.1,8.1,0,0,0,39.991,91a5.859,5.859,0,0,0,5.358-3.509,10.6,10.6,0,0,0,4.408.94c.18,0,.359,0,.54-.013a10.983,10.983,0,0,0,4.308-1.063A5.874,5.874,0,0,0,60.009,91a8.1,8.1,0,0,0,6.544-3.383A5.1,5.1,0,0,0,69.663,88.9q.1,0,.2,0c3.156,0,5.825-3.152,5.993-7.136.136-3.228-1.415-6.048-3.681-7.147A11.526,11.526,0,0,0,75.84,72.61a6.235,6.235,0,0,0,3.75,1.321,5.97,5.97,0,0,0,2.738-.679c2.772-1.421,5.218-5.344,4.428-10.935A1.857,1.857,0,0,0,85.213,60.792ZM30.7,39.275c.242-.532.5-1.052.764-1.586l.079-.149c.041-.074.081-.147.1-.195a30.681,30.681,0,0,1,3.894-5.626q.75-.86,1.554-1.651a25.855,25.855,0,0,1,2.774-2.361.908.908,0,0,0,.116-.075c.373-.28.748-.538,1.128-.779.17-.106.339-.214.554-.323a16.319,16.319,0,0,1,8.326-1.748c3.142,0,5.762.3,8.34,1.749.184.1.368.207.534.311.384.251.779.515,1.16.789a23.688,23.688,0,0,1,2.865,2.451,29.964,29.964,0,0,1,5.445,7.237c.037.074.077.147.118.221l.079.149h0c.267.531.52,1.051.756,1.57q.319.729.584,1.447a16.627,16.627,0,0,1,.984,9.215,9.913,9.913,0,0,1-2.577,4.865,11.092,11.092,0,0,1-1.555,1.318c-.151.107-.3.213-.462.315a17.07,17.07,0,0,1-5.254,2.148c-.27.066-.532.137-.812.195a27.18,27.18,0,0,1-3.222.468c-.309.035-.6.059-.909.082-.623.036-1.272.051-1.943.053s-1.367-.006-2.081-.014c-1.33-.017-2.776-.017-4.108,0-1.428.019-2.775.035-4-.038-.317-.024-.625-.047-.954-.086a26.986,26.986,0,0,1-3.189-.464c-4.033-.835-7-2.46-8.82-4.83a10,10,0,0,1-1.842-4.017C28.448,46.83,28.991,43.146,30.7,39.275Zm-2.329-9.529a4.028,4.028,0,0,1,6.148-.772l.443.411c-.2.21-.386.434-.581.65-.171.191-.344.378-.512.573-.39.455-.766.923-1.132,1.4-.091.119-.188.232-.278.352q-.672.9-1.28,1.85c-.113.175-.214.356-.324.533-.211.343-.429.682-.627,1.031l-.811-.575a1.654,1.654,0,0,1-.241-.2,3.961,3.961,0,0,1-1.438-3.08A4.065,4.065,0,0,1,28.371,29.746Zm37.113-.775a4.029,4.029,0,0,1,6.141.768,4.078,4.078,0,0,1,.636,2.182,4.007,4.007,0,0,1-1.45,3.1c-.048.042-.1.083-.159.124l-.881.628c-.2-.362-.431-.715-.651-1.07-.1-.167-.2-.338-.306-.5q-.61-.946-1.283-1.849c-.094-.126-.2-.244-.292-.369-.362-.469-.732-.929-1.117-1.375-.169-.2-.343-.383-.516-.574-.193-.212-.378-.434-.576-.64ZM30.255,86.9c-2.179.085-3.984-2.252-4.109-5.221s1.5-5.451,3.652-5.55l.126,0a3.068,3.068,0,0,1,1.85.661l.14,6.321c.007.267.029.531.062.792.01.082.025.162.038.243.028.179.06.358.1.534.021.093.044.185.068.277.044.166.094.329.148.492.029.088.057.176.09.263.013.034.022.069.035.1A3.254,3.254,0,0,1,30.255,86.9ZM45.229,74.194c-.078.1-.165.2-.237.309-.116.178-.214.379-.316.575-.055.106-.119.2-.17.313a8.3,8.3,0,0,0-.382,1.014c-.749,2.432-.58,5.432-.281,8.35a2.91,2.91,0,0,1,.015.391,3.339,3.339,0,0,1-.069.716A3.862,3.862,0,0,1,39.991,89a6.1,6.1,0,0,1-5.476-3.467,5.882,5.882,0,0,1-.6-2.47l-.147-6.746s0-.008,0-.012L33.6,68.888c.081-.018.161-.045.242-.064.151-.036.3-.078.452-.119.26-.072.518-.152.776-.241.15-.052.3-.1.448-.161.271-.1.539-.221.806-.343.127-.058.255-.111.38-.173.388-.192.771-.4,1.144-.627a14.461,14.461,0,0,0,1.718-1.207,13.3,13.3,0,0,0,1.921,3.409c.012.015.025.032.041.048a12.917,12.917,0,0,0,.951,1.074c.1.1.208.2.313.3q.361.344.742.652c.12.1.24.192.364.284.278.206.563.395.855.572.1.059.19.125.288.18a10.7,10.7,0,0,0,1.195.583c.021.009.041.022.062.03-.009.007-.017.017-.026.024-.141.109-.267.238-.4.361-.1.092-.2.174-.294.273C45.453,73.881,45.343,74.04,45.229,74.194Zm8.949,10.282a4.819,4.819,0,0,0-.034.67c0,.061,0,.126,0,.2a8.816,8.816,0,0,1-3.94,1.077,8.555,8.555,0,0,1-4.36-.9c.007-.121.011-.245.011-.372a4.749,4.749,0,0,0-.029-.632c-.26-2.542-.438-5.424.208-7.521a4.024,4.024,0,0,1,3.976-3.132,3.983,3.983,0,0,1,3.9,2.949C54.624,78.924,54.444,81.89,54.178,84.476Zm12.2-14.367c0,.012-.007.023-.007.036l-.1,4.665h0l-.033,1.464c0,.007,0,.013,0,.02l-.147,6.765a5.9,5.9,0,0,1-.606,2.483A6.094,6.094,0,0,1,60.009,89a3.882,3.882,0,0,1-3.825-3.341,2.562,2.562,0,0,1-.04-.512,2.943,2.943,0,0,1,.02-.428c.307-2.979.477-6.077-.355-8.546a7.963,7.963,0,0,0-.378-.932c-.053-.11-.118-.205-.176-.31-.1-.174-.188-.352-.3-.511-.072-.107-.156-.2-.233-.3-.108-.14-.212-.284-.331-.411-.086-.092-.183-.17-.274-.256-.108-.1-.208-.21-.323-.3.033-.013.063-.033.1-.046A10.523,10.523,0,0,0,55.16,72.5c.076-.043.148-.1.223-.142a11.028,11.028,0,0,0,.974-.655c.124-.093.243-.192.363-.291q.405-.333.784-.707c.106-.1.214-.206.317-.315a12.2,12.2,0,0,0,.969-1.153l.036-.046a13.125,13.125,0,0,0,1.71-3.161,15.228,15.228,0,0,0,1.605,1.124c.377.231.763.439,1.153.632.122.06.245.111.368.168.273.125.546.244.823.351.146.056.292.107.439.157q.393.136.787.245c.148.041.3.082.443.117.083.02.165.048.248.066Zm7.479,11.574c-.125,2.965-1.949,5.323-4.1,5.218a3.256,3.256,0,0,1-2.205-1.091c.013-.033.022-.068.035-.1.031-.083.058-.167.086-.251.057-.168.109-.337.154-.509.023-.089.045-.177.066-.267.041-.179.073-.361.1-.543.012-.079.027-.158.037-.238.032-.262.055-.526.062-.795l.14-6.318A3.085,3.085,0,0,1,70.2,76.13C72.34,76.229,73.979,78.72,73.854,81.684ZM68.3,73.6l.058-2.627a37.9,37.9,0,0,0,6.168-1.919l.23,1.868C73.209,72.353,70.809,73.086,68.3,73.6Z"/>
    <path id="Trazado_21" data-name="Trazado 21" d="M47.327,51.952a6.175,6.175,0,0,0,5.348,0,1,1,0,1,0-.834-1.817,4.2,4.2,0,0,1-3.684,0,1,1,0,1,0-.83,1.819Z"/>
    <path id="Trazado_22" data-name="Trazado 22" d="M41.854,46.313a2.253,2.253,0,0,0,1.977-2.489,2.252,2.252,0,0,0-1.977-2.488,2.252,2.252,0,0,0-1.976,2.488A2.253,2.253,0,0,0,41.854,46.313Z"/>
    <path id="Trazado_23" data-name="Trazado 23" d="M58.146,46.313a2.253,2.253,0,0,0,1.976-2.489,2.028,2.028,0,1,0-3.951,0A2.253,2.253,0,0,0,58.146,46.313Z"/>
    <path id="Trazado_24" data-name="Trazado 24" d="M50,56.17c3.976,0,7.21-2.786,7.21-6.21a6.26,6.26,0,0,0-4.3-5.678s-.008-.006-.013-.008l-.03-.01c-.18-.067-.366-.126-.553-.181-.042-.012-.083-.028-.125-.039a8.286,8.286,0,0,0-4.37,0c-.034.009-.066.022-.1.032-.2.057-.393.119-.583.19l-.027.009s-.007.006-.012.007a6.26,6.26,0,0,0-4.306,5.679C42.789,53.385,46.023,56.17,50,56.17ZM46.9,46.6a3.488,3.488,0,0,0,2.979,2.321,1.031,1.031,0,0,0,.116.007,1.017,1.017,0,0,0,.116-.007A3.5,3.5,0,0,0,53.1,46.6,4.005,4.005,0,0,1,55.21,49.96c0,2.321-2.337,4.21-5.21,4.21s-5.211-1.889-5.211-4.21A4.005,4.005,0,0,1,46.9,46.6Z"/>
  </g>
</svg>
