<svg xmlns="http://www.w3.org/2000/svg" width="82" height="73.255" viewBox="0 0 82 73.255">
  <g id="Grupo_3" data-name="Grupo 3" transform="translate(-9 -13.373)">
    <path id="Trazado_9" data-name="Trazado 9" d="M90.99,41.4a8.846,8.846,0,0,0-4.263-7.231l-2.658-1.614a7.493,7.493,0,0,1-2.584-2.591,43.849,43.849,0,0,1-2.64-5.462,26.749,26.749,0,0,0-5.423-8.9,6.947,6.947,0,0,0-10.5.351l-1.04,1.294a24.919,24.919,0,0,0-9.363-3.625H52.51A16.613,16.613,0,0,0,50,13.373h-.009A22.3,22.3,0,0,0,38.123,17.25l-1.043-1.3a6.947,6.947,0,0,0-10.5-.352,24.42,24.42,0,0,0-2.6,3.276,32.638,32.638,0,0,0-2.827,5.617,43.356,43.356,0,0,1-2.643,5.467,7.49,7.49,0,0,1-2.587,2.594l-2.655,1.612A8.849,8.849,0,0,0,9.01,41.409,11.18,11.18,0,0,0,20.187,53.046q.508,0,1.018-.046l1.162-.111A17.159,17.159,0,0,0,31.883,64.02a32.7,32.7,0,0,0-.476,5.25c-3.174.28-6.423,1.664-6.423,7.831a9.061,9.061,0,0,0,3.177,7.024,6.677,6.677,0,0,0,8.265.237c.143.185.287.371.449.569a4.816,4.816,0,0,0,2.655,1.58A4.687,4.687,0,0,0,44.8,84.09a9.3,9.3,0,0,0,10.394,0,4.656,4.656,0,0,0,4.21,2.533,5.049,5.049,0,0,0,1.061-.116,4.841,4.841,0,0,0,2.679-1.6c.154-.188.292-.367.43-.546a6.677,6.677,0,0,0,8.261-.235A9.062,9.062,0,0,0,75.016,77.1c0-6.166-3.25-7.55-6.423-7.831a32.673,32.673,0,0,0-.476-5.252,17.189,17.189,0,0,0,9.517-11.129L78.8,53q.508.046,1.015.046a11.18,11.18,0,0,0,11.176-11.6v-.012C90.991,41.424,90.991,41.411,90.99,41.4ZM29.424,82.574a7.05,7.05,0,0,1-2.44-5.474c0-4.684,2.021-5.625,4.479-5.838.012.171.032.336.047.5.013.15.026.3.042.447.055.52.12,1.032.2,1.527a23.2,23.2,0,0,0,3.364,8.793l.141.211A4.763,4.763,0,0,1,29.424,82.574Zm15.795-.681q0-.214-.006-.428c0-.129,0-.258,0-.386,0-.212,0-.422,0-.633,0-.147,0-.294,0-.44,0-.2.005-.389.009-.582,0-.154.006-.308.01-.46.005-.186.013-.368.021-.551.007-.154.013-.308.021-.459.01-.178.023-.353.036-.528.011-.15.021-.3.035-.449.015-.17.035-.336.054-.5.016-.145.031-.292.051-.434.022-.161.048-.316.073-.473.022-.139.043-.28.069-.416.029-.152.063-.3.1-.445.029-.13.056-.263.089-.389.037-.143.081-.278.122-.415.036-.12.07-.242.111-.357.047-.133.1-.256.152-.383.044-.107.085-.219.133-.321.057-.121.123-.232.186-.346.052-.095.1-.194.158-.283.07-.109.149-.206.225-.306.06-.08.117-.165.181-.239.084-.1.179-.178.271-.263.068-.064.131-.134.2-.192a3.448,3.448,0,0,1,.327-.216c.074-.046.141-.1.219-.142a3.515,3.515,0,0,1,.413-.169c.072-.026.136-.062.211-.085a4,4,0,0,1,.706-.142,6.251,6.251,0,0,1,1.209,0,4.015,4.015,0,0,1,.707.142c.073.022.137.057.207.083a3.539,3.539,0,0,1,.419.171c.073.038.137.09.206.133a3.459,3.459,0,0,1,.342.226c.065.052.122.116.183.173a3.8,3.8,0,0,1,.293.284c.054.062.1.134.151.2.088.114.178.225.257.351.043.068.079.144.12.214.078.136.157.272.226.42.033.071.061.149.093.223.068.16.136.319.2.49.025.071.045.147.068.22.058.184.116.369.166.564.018.069.032.143.049.214.049.207.1.416.136.634.012.067.023.138.034.206.039.228.076.459.107.7.009.066.015.134.023.2.03.245.057.493.079.748.006.069.011.139.016.209.02.255.039.512.053.774,0,.078.007.158.011.237.012.255.022.512.03.773,0,.1,0,.193.006.289q.008.362.011.729c0,.133,0,.266,0,.4q0,.3,0,.607t-.007.629q0,.1,0,.2a7.293,7.293,0,0,1-9.563,0Zm14.828,2.662A2.532,2.532,0,0,1,56.776,82.3a51.389,51.389,0,0,0-.093-5.255c0-.011,0-.022,0-.033-.031-.359-.068-.718-.114-1.073-.005-.039-.013-.077-.018-.117-.044-.327-.094-.652-.154-.972-.015-.077-.035-.151-.051-.227-.057-.279-.115-.558-.186-.828-.016-.059-.037-.114-.053-.173-.079-.283-.161-.564-.258-.833-.017-.047-.039-.089-.056-.135-.1-.276-.212-.548-.338-.806-.028-.058-.065-.109-.094-.166a7.488,7.488,0,0,0-.392-.693c-.041-.063-.093-.116-.136-.177a6.174,6.174,0,0,0-.452-.586c-.028-.031-.063-.054-.091-.085a5.4,5.4,0,0,0-.609-.565c-.034-.026-.075-.044-.109-.069a5.274,5.274,0,0,0-1.662-.827,6.4,6.4,0,0,0-1.09-.215,8.089,8.089,0,0,0-1.637,0c-6.2.688-6.045,8.917-5.954,13.862a2.482,2.482,0,0,1-2.629,2.3,3.009,3.009,0,0,1-.647-.073,2.815,2.815,0,0,1-1.542-.911c-.374-.458-.7-.883-1-1.321-.215-.294-.418-.588-.606-.875a21.207,21.207,0,0,1-3.071-8.039,23.775,23.775,0,0,1-.319-3.26c-.01-.17-.01-.35-.01-.526a30.193,30.193,0,0,1,.371-4.81c.206.069.425.12.636.182.243.071.484.147.734.21.284.071.579.13.871.191.263.055.522.113.793.16.286.049.584.088.878.129s.591.088.9.122c.261.029.535.05.8.074.36.033.716.068,1.088.093.184.012.377.019.564.03,2.394.136,5.022.141,7.94.141h3.037l.942,0h.462q.855,0,1.675-.014l.569-.007c.481-.008.953-.02,1.416-.033.228-.007.459-.013.683-.022.412-.016.814-.037,1.212-.06.25-.014.5-.028.747-.045.36-.026.711-.058,1.06-.091.26-.025.522-.049.776-.079.321-.037.633-.083.944-.129.261-.038.523-.076.777-.121.292-.052.575-.113.859-.174.253-.054.509-.108.755-.17.272-.069.535-.15.8-.229.179-.054.367-.1.543-.156a30.183,30.183,0,0,1,.371,4.81v.006c0,.17,0,.35-.011.55a23.426,23.426,0,0,1-.32,3.236,21.168,21.168,0,0,1-3.064,8.024c-.192.294-.4.588-.626.9q-.432.624-.965,1.277A2.839,2.839,0,0,1,60.047,84.555ZM73.016,77.1a7.05,7.05,0,0,1-2.444,5.476,4.765,4.765,0,0,1-5.834.17l.146-.22a23.158,23.158,0,0,0,3.357-8.778c.085-.5.151-1.007.206-1.526.016-.153.029-.305.043-.459s.035-.332.047-.5C70.995,71.475,73.016,72.417,73.016,77.1ZM66.6,62.537a6.927,6.927,0,0,1-.655.257c-3.73,1.358-8.67,1.35-14.915,1.351H48.973c-6.254,0-11.185.007-14.94-1.36a6.823,6.823,0,0,1-.649-.257,15.38,15.38,0,0,1-9.322-10.951,16.409,16.409,0,0,1-.325-1.686q-.083-.571-.133-1.157c-.012-.135-.016-.273-.026-.409-.018-.258-.036-.515-.045-.776-.006-.162,0-.327-.006-.491,0-.239-.007-.478,0-.72,0-.175.012-.353.019-.529.009-.234.018-.467.033-.7.012-.183.029-.368.045-.553.02-.232.041-.464.067-.7.021-.189.047-.378.072-.568.031-.233.063-.465.1-.7.03-.19.063-.382.1-.573.042-.235.086-.47.133-.706q.058-.288.123-.577.079-.354.166-.71.071-.289.147-.578c.063-.239.13-.477.2-.716.055-.191.111-.383.17-.574.075-.242.154-.483.234-.725.063-.188.125-.377.191-.565.086-.245.178-.489.269-.733.07-.185.138-.37.211-.555.1-.25.2-.5.31-.75.074-.176.146-.352.223-.528.116-.264.24-.527.363-.79.075-.159.146-.319.223-.477.147-.3.3-.6.458-.9.061-.117.118-.235.18-.352q.329-.617.683-1.225c.021.027.044.049.065.076q.453.579.936,1.1c.055.059.11.117.166.176.328.344.664.672,1.01.977.047.041.094.079.141.119.365.313.736.609,1.119.878l.022.014a13.456,13.456,0,0,0,1.167.726c.046.026.092.054.139.079a12.471,12.471,0,0,0,1.166.552c.068.028.136.057.2.084a11.679,11.679,0,0,0,1.183.393c.07.019.14.036.21.054A11.147,11.147,0,0,0,37,36.024c.053.007.107.011.161.018a10.491,10.491,0,0,0,2.832-.02c.172-.024.339-.075.51-.107.323-.061.648-.114.964-.2.2-.056.39-.14.586-.207.28-.1.563-.18.837-.3.205-.088.4-.2.6-.3.255-.126.514-.241.762-.386.2-.117.393-.26.59-.389.237-.156.479-.3.709-.472.2-.147.383-.318.574-.477.218-.181.441-.351.651-.547.188-.175.364-.372.546-.558.2-.205.407-.4.6-.619.177-.2.34-.421.509-.632.184-.228.373-.447.548-.687.163-.224.312-.467.468-.7s.338-.49.494-.75.281-.509.421-.764.3-.53.439-.809.245-.544.367-.817c.129-.289.264-.571.383-.868.112-.28.206-.574.308-.862.109-.307.225-.609.323-.925.091-.294.165-.6.247-.9.088-.325.183-.644.26-.976.07-.306.122-.623.182-.935.066-.34.138-.676.191-1.023.048-.315.077-.639.115-.96.042-.356.091-.709.119-1.07.025-.322.03-.652.045-.979s.042-.647.044-.977a23.811,23.811,0,0,1,8.16,3.583,29.615,29.615,0,0,1,3.177,2.466c.02.018.092.086.113.1a34.132,34.132,0,0,1,2.863,2.9c6.287,7.18,9.74,16.976,8.568,25.024a16.448,16.448,0,0,1-.326,1.683A15.413,15.413,0,0,1,66.6,62.537Z"/>
    <path id="Trazado_10" data-name="Trazado 10" d="M39.678,39.933c-1.656,0-2.954,1.737-2.954,3.954s1.3,3.955,2.954,3.955,2.954-1.737,2.954-3.955S41.335,39.933,39.678,39.933Z"/>
    <path id="Trazado_11" data-name="Trazado 11" d="M55.19,46.836a2.623,2.623,0,0,0-2.472-2.042H47.282a2.623,2.623,0,0,0-2.472,2.042,3.423,3.423,0,0,0,1.172,3.832A7.233,7.233,0,0,0,48.871,51.8a2.675,2.675,0,0,1-.766,1.288,4.08,4.08,0,0,1-2.378.988.986.986,0,0,0-1.078.916,1,1,0,0,0,.916,1.078c.05,0,.106.006.168.006a5.985,5.985,0,0,0,3.72-1.51,4.813,4.813,0,0,0,.548-.6,4.817,4.817,0,0,0,.548.6,5.871,5.871,0,0,0,3.888,1.5,1,1,0,0,0,.913-1.074,1.011,1.011,0,0,0-1.074-.919,4.033,4.033,0,0,1-2.378-.988A2.672,2.672,0,0,1,51.13,51.8a7.233,7.233,0,0,0,2.888-1.129A3.422,3.422,0,0,0,55.19,46.836Z"/>
    <path id="Trazado_12" data-name="Trazado 12" d="M60.322,39.933c-1.656,0-2.954,1.737-2.954,3.954s1.3,3.955,2.954,3.955,2.954-1.737,2.954-3.955S61.979,39.933,60.322,39.933Z"/>
  </g>
</svg>
