<svg xmlns="http://www.w3.org/2000/svg" width="71.706" height="77.781" viewBox="0 0 71.706 77.781">
  <g id="Grupo_1" data-name="Grupo 1" transform="translate(-14.147 -11.109)">
    <path id="Trazado_1" data-name="Trazado 1" d="M84.336,61.926l-2.814-1.483a6.289,6.289,0,0,0-6.616.643,4.759,4.759,0,0,0-2.018,3.894,10.909,10.909,0,0,0-6.25,4.259V64.366c9.17-3.693,12-11.764,8.881-25.346-.061-.273-.131-.528-.2-.794,4.379-.173,7.69-2.363,9.829-6.571h0a6.411,6.411,0,0,0-.311-6.367A6.222,6.222,0,0,0,79.4,22.341a20.056,20.056,0,0,0-8.985,2.344,33.381,33.381,0,0,0-2-3.289,10.753,10.753,0,0,0,.2-8.6,1.934,1.934,0,0,0-1.436-1.265,1.9,1.9,0,0,0-1.8.571,25.521,25.521,0,0,1-3.107,2.853A20.617,20.617,0,0,0,50,11.109c-.489,0-.967.013-1.432.049H48.54a20.35,20.35,0,0,0-10.818,3.8,24.249,24.249,0,0,1-3.1-2.852,1.931,1.931,0,0,0-3.241.7,10.725,10.725,0,0,0,.2,8.589,33.333,33.333,0,0,0-2,3.295,21.1,21.1,0,0,0-4.892-1.844,20.271,20.271,0,0,0-4.1-.507,6.221,6.221,0,0,0-5.434,2.942,6.413,6.413,0,0,0-.311,6.369c2.128,4.21,5.438,6.4,9.829,6.573-.064.263-.135.521-.195.788-3.135,13.584-.3,21.655,8.869,25.352v6.366a5.977,5.977,0,0,0-3.088-1.03l-.627,0a5.993,5.993,0,0,0-4.086,2.155A8.884,8.884,0,0,0,23.6,78.319a9.074,9.074,0,0,0,2.3,5.513,6.193,6.193,0,0,0,4.549,2.111c.143,0,.286,0,.429-.016a5.79,5.79,0,0,0,3.054-1.2A6.987,6.987,0,0,0,40.3,88.891H42a5.292,5.292,0,0,0,5-3.622,9.554,9.554,0,0,0,6,.005A5.314,5.314,0,0,0,58,88.891h1.7a6.968,6.968,0,0,0,6.355-4.169,5.8,5.8,0,0,0,3.063,1.206c.139.011.276.016.414.016,3.493,0,6.528-3.321,6.862-7.621a8.884,8.884,0,0,0-1.948-6.462,6.016,6.016,0,0,0-4.16-2.158H69.7a5.537,5.537,0,0,0-.948.127A8.368,8.368,0,0,1,73.4,66.914a4.841,4.841,0,0,0,3.289,2.348,6.325,6.325,0,0,0,1.383.152,6.208,6.208,0,0,0,4.9-2.322l1.941-2.522a1.77,1.77,0,0,0-.578-2.644Zm-38.285,11.2a4.115,4.115,0,0,0-.456.63c-.044.074-.078.157-.118.235a4.745,4.745,0,0,0-.227.488c-.038.1-.068.207-.1.311-.052.164-.1.332-.142.509-.026.117-.048.24-.07.363-.032.18-.059.366-.08.558-.015.132-.027.267-.037.405-.015.2-.024.412-.029.627,0,.143-.008.286-.007.434,0,.234.008.479.017.727.005.145.008.286.017.436.016.3.041.606.067.921.01.116.016.225.027.344,0,.021,0,.04,0,.062h-.008l-9.558-1.8V65.093l.042.012c.077.024.158.044.236.067q.564.168,1.157.319c.148.038.3.073.449.109q.536.128,1.093.243c.14.029.279.059.421.086.512.1,1.032.192,1.568.274A63.51,63.51,0,0,0,50,66.861a64.938,64.938,0,0,0,9.6-.639l.064-.008c.542-.085,1.063-.18,1.573-.28.154-.03.3-.063.455-.094q.546-.114,1.068-.239c.15-.036.3-.072.448-.11q.614-.157,1.2-.332c.058-.017.12-.033.177-.051l.057-.016V78.377l-9.56,1.8q.055-.56.092-1.1c.005-.074.006-.146.011-.219.018-.3.031-.6.037-.887,0-.125,0-.245,0-.367,0-.235,0-.467-.016-.693-.007-.133-.018-.261-.029-.391q-.026-.313-.07-.613c-.019-.127-.04-.253-.064-.376-.038-.194-.085-.38-.137-.563-.032-.113-.063-.228-.1-.337a5.041,5.041,0,0,0-.233-.543c-.042-.086-.077-.178-.123-.26a4.036,4.036,0,0,0-.49-.7A4.974,4.974,0,0,0,50,71.664,4.975,4.975,0,0,0,46.051,73.126ZM38.073,61.815c-.14-.173-.258-.353-.384-.531-.1-.141-.209-.279-.3-.423-.115-.185-.208-.377-.308-.567-.077-.145-.164-.287-.232-.435-.092-.2-.159-.409-.233-.614-.052-.143-.116-.282-.159-.427-.069-.231-.111-.467-.158-.7-.025-.124-.063-.245-.082-.37a7.467,7.467,0,0,1-.081-1.094c0-5.61,6.219-10.174,13.863-10.174S63.863,51.04,63.863,56.65a7.464,7.464,0,0,1-.082,1.1c-.018.123-.057.244-.081.366-.047.237-.09.475-.159.707-.042.141-.105.278-.156.418-.076.209-.144.42-.238.625-.066.145-.152.284-.227.426-.1.194-.2.389-.315.578-.089.142-.2.278-.3.417-.127.181-.248.364-.39.539-.111.137-.24.266-.36.4-.152.168-.3.339-.463.5-.133.13-.282.251-.423.376-.175.155-.345.312-.533.46-.154.121-.324.233-.487.349s-.336.243-.514.357c-.333.049-.685.089-1.031.133-.32.04-.63.085-.961.12-.425.045-.874.077-1.316.113-.31.025-.608.057-.925.077-.507.033-1.037.054-1.564.076-.277.012-.541.03-.823.039q-1.227.038-2.519.039-1.309,0-2.546-.039c-.268-.008-.518-.026-.781-.037-.546-.023-1.1-.045-1.62-.08-.3-.02-.574-.05-.864-.073-.465-.038-.936-.073-1.381-.121-.3-.032-.574-.074-.863-.11-.372-.047-.748-.091-1.1-.145-.179-.116-.346-.239-.516-.36s-.329-.226-.482-.346c-.187-.147-.355-.3-.528-.458-.141-.126-.291-.247-.424-.377-.164-.16-.307-.33-.457-.5C38.314,62.083,38.184,61.953,38.073,61.815Zm41.37-37.474a4.227,4.227,0,0,1,3.708,2.013,4.427,4.427,0,0,1,.218,4.4c-1.874,3.684-4.671,5.491-8.54,5.51-.019-.073-.042-.141-.061-.214-.194-.724-.4-1.432-.608-2.12-.033-.106-.066-.209-.1-.315-.113-.361-.227-.717-.344-1.066A19.8,19.8,0,0,0,77.491,31.2a1,1,0,1,0-.889-1.791,18.243,18.243,0,0,1-3.551,1.236q-.275-.755-.567-1.486c-.054-.136-.107-.273-.163-.408q-.448-1.093-.932-2.122c-.026-.055-.049-.115-.075-.17A18.108,18.108,0,0,1,79.443,24.341ZM66.759,13.557c.994,2.968.88,5.251-.368,7.389h0c-.161.269-.344.531-.536.793-.026.036-.047.073-.074.109-.224.3-.47.592-.741.89a1.114,1.114,0,0,1-1.24.273,11.418,11.418,0,0,1-4.725-3.5.3.3,0,0,1-.052-.279.386.386,0,0,1,.225-.259c.345-.125.69-.273,1.036-.433a15.079,15.079,0,0,0,1.691-.92q.452-.285.9-.608l0,0A25.917,25.917,0,0,0,66.759,13.557Zm-33.519,0a24.708,24.708,0,0,0,3.885,3.451,14.826,14.826,0,0,0,3.605,1.958.4.4,0,0,1,.243.271.326.326,0,0,1,.009.146l0,0a.281.281,0,0,1-.057.123c-.242.3-.5.565-.761.833-.2.21-.413.4-.629.6-.165.146-.33.29-.5.425s-.337.258-.511.381c-.257.18-.52.351-.793.508-.1.056-.188.115-.287.168a11.8,11.8,0,0,1-1.259.592,1.11,1.11,0,0,1-.33.079,1.072,1.072,0,0,1-.328-.024,1.109,1.109,0,0,1-.571-.338,10.525,10.525,0,0,1-.973-1.227c-.125-.183-.259-.364-.367-.551C32.358,18.825,32.242,16.54,33.24,13.558ZM16.632,30.749a4.43,4.43,0,0,1,.218-4.4,4.234,4.234,0,0,1,3.6-2.01h.1a18.161,18.161,0,0,1,3.69.456,19.072,19.072,0,0,1,4.444,1.667c-.026.055-.049.116-.075.172q-.482,1.026-.929,2.115c-.057.138-.111.279-.167.419q-.291.728-.564,1.48a18.3,18.3,0,0,1-3.563-1.236A1,1,0,1,0,22.5,31.2a19.827,19.827,0,0,0,3.79,1.341c-.106.312-.215.616-.316.938h0v0h0c-.118.369-.234.756-.35,1.155-.027.091-.054.184-.081.278-.113.394-.227.808-.343,1.246-.009.033-.017.061-.026.095C21.293,36.241,18.494,34.434,16.632,30.749Zm9.8,8.708c.15-.668.312-1.313.487-1.97.1-.379.19-.734.282-1.076.024-.091.049-.177.073-.265.066-.24.131-.473.2-.7l.045-.155c.075.039.154.071.23.108.128.062.256.123.386.181s.287.123.433.181.273.108.412.157.287.1.431.143.3.093.446.135.28.072.421.106c.159.038.319.077.48.109.136.027.274.05.412.073.168.028.336.057.507.079.137.018.276.03.415.043.172.017.343.035.517.046.147.009.3.011.444.015s.268.014.4.014c.028,0,.057,0,.086,0,.339,0,.68-.013,1.022-.04,6.31-.5,11.112-5.095,10.7-10.244-.008-.093-.017-.184-.027-.274a8.414,8.414,0,0,0,6.716-8.4,8.991,8.991,0,0,0-.075-1.1c-.013-.1-.03-.206-.046-.309q-.066-.415-.169-.819c-.023-.091-.043-.182-.069-.272a8.8,8.8,0,0,0-.355-1c-.027-.062-.059-.121-.087-.182a8.6,8.6,0,0,0-.4-.775c-.027-.047-.047-.1-.075-.145a18.606,18.606,0,0,1,9.84,3.037l-.144.085c-.213.121-.426.233-.639.339-.091.045-.183.094-.274.136-.3.14-.6.269-.9.378a2.4,2.4,0,0,0-1.46,1.606,2.288,2.288,0,0,0,.421,2.06,13.381,13.381,0,0,0,5.538,4.107,3.074,3.074,0,0,0,.527.156c.057.012.113.018.17.026a3.1,3.1,0,0,0,.372.036c.032,0,.064.009.1.009s.057-.008.087-.009a3.124,3.124,0,0,0,.466-.048c.036-.006.072-.008.107-.016a3.135,3.135,0,0,0,.54-.171c.046-.019.09-.043.135-.065a3.089,3.089,0,0,0,.385-.217c.047-.031.093-.061.138-.094a3.052,3.052,0,0,0,.44-.389q.391-.429.727-.86a33.654,33.654,0,0,1,1.858,3.27,45.907,45.907,0,0,1,2.372,5.68c.587,1.637,1.127,3.424,1.609,5.325.173.645.333,1.29.484,1.963,3.01,13.092.535,20.06-8.276,23.3h0c-.39.144-.8.278-1.209.406-.128.04-.261.077-.392.116-.163.048-.332.092-.5.138.07-.08.13-.163.2-.244s.142-.173.211-.261a11.533,11.533,0,0,0,.733-1.033c.007-.011.012-.022.018-.032a10.673,10.673,0,0,0,.567-1.066c.045-.1.088-.191.13-.288a10.047,10.047,0,0,0,.423-1.142c0-.005,0-.011,0-.016a9.65,9.65,0,0,0,.255-1.168c.016-.1.031-.2.044-.3a9.5,9.5,0,0,0,.088-1.215c0-6.713-7.116-12.174-15.863-12.174S34.137,49.938,34.137,56.65a9.509,9.509,0,0,0,.087,1.215c.013.1.027.2.043.3a9.651,9.651,0,0,0,.254,1.167c0,.005,0,.011,0,.017A10.018,10.018,0,0,0,34.95,60.5c.04.093.081.184.124.276a10.659,10.659,0,0,0,.568,1.07c.006.01.011.021.018.031a11.517,11.517,0,0,0,.737,1.042c.065.083.131.165.2.246s.136.176.21.26c-.175-.048-.354-.094-.525-.144-.123-.036-.247-.071-.368-.108-.412-.128-.815-.261-1.2-.4l-.02-.007C26,59.561,23.45,52.375,26.432,39.457Zm4.3,44.477a4.161,4.161,0,0,1-3.356-1.463,7.075,7.075,0,0,1-1.775-4.3,6.876,6.876,0,0,1,1.471-5A3.945,3.945,0,0,1,29.709,71.7h.515a4.31,4.31,0,0,1,3.125,1.686v1.974a3.384,3.384,0,0,0-3.706-.6A3.2,3.2,0,0,0,28,76.975a4.286,4.286,0,0,0,.4,2.832A4,4,0,0,0,31.854,82.1a2.98,2.98,0,0,0,1.356-.321c.05-.026.091-.065.14-.093v.272c0,.192.009.387.026.58A3.981,3.981,0,0,1,30.727,83.934ZM32.9,79.145A1.224,1.224,0,0,1,32.3,80c-.672.342-1.64-.161-2.115-1.1a2.314,2.314,0,0,1-.231-1.5,1.224,1.224,0,0,1,.592-.852,1.006,1.006,0,0,1,.462-.107,2.037,2.037,0,0,1,1.652,1.2A2.314,2.314,0,0,1,32.9,79.145Zm14.38,4.11q-.011-.164-.032-.34l-.05-.4c-.053-.418-.1-.823-.149-1.228-.39-3.327-.454-5.762.5-6.833A3.14,3.14,0,0,1,50,73.664a3.143,3.143,0,0,1,2.458.793c.952,1.071.882,3.51.485,6.842a.043.043,0,0,1,0,.008c-.041.37-.088.738-.136,1.12l-.062.5c-.014.116-.024.229-.031.338A7.827,7.827,0,0,1,47.276,83.255ZM69.739,71.7l.478,0a3.96,3.96,0,0,1,2.717,1.464,6.88,6.88,0,0,1,1.472,5c-.262,3.372-2.569,5.966-5.125,5.766a4.025,4.025,0,0,1-2.667-1.409q.025-.281.025-.566V81.68c.051.03.095.072.148.1a2.98,2.98,0,0,0,1.356.321,4.005,4.005,0,0,0,3.448-2.294,4.286,4.286,0,0,0,.4-2.832,3.2,3.2,0,0,0-1.641-2.212,3.387,3.387,0,0,0-3.714.605V73.405A4.332,4.332,0,0,1,69.739,71.7Zm-2.408,5.939a2.037,2.037,0,0,1,1.652-1.2,1.006,1.006,0,0,1,.462.107,1.224,1.224,0,0,1,.592.852,2.314,2.314,0,0,1-.231,1.5c-.475.935-1.445,1.438-2.115,1.1a1.224,1.224,0,0,1-.592-.852A2.314,2.314,0,0,1,67.331,77.642Z"/>
    <path id="Trazado_2" data-name="Trazado 2" d="M38.737,45.4c1.567,0,2.794-1.573,2.794-3.581s-1.227-3.58-2.794-3.58-2.794,1.572-2.794,3.58S37.17,45.4,38.737,45.4Z"/>
    <path id="Trazado_3" data-name="Trazado 3" d="M50,54.966a7.552,7.552,0,0,0,4.75-1.878A1,1,0,0,0,53.5,51.531c-2.382,1.923-4.606,1.921-7,0a1,1,0,0,0-1.252,1.561A7.6,7.6,0,0,0,50,54.966Z"/>
    <path id="Trazado_4" data-name="Trazado 4" d="M61.26,45.4c1.567,0,2.794-1.573,2.794-3.581s-1.227-3.58-2.794-3.58-2.794,1.572-2.794,3.58S59.693,45.4,61.26,45.4Z"/>
  </g>
</svg>
